<svg viewBox="0 0 1080 1080" xmlns="http://www.w3.org/2000/svg">
  <defs>
    <linearGradient id="sg" x1="0" y1="0" x2="0" y2="1"><stop offset="0%" stop-color="#3D63E6"/><stop offset="100%" stop-color="#2747C2"/></linearGradient>
    <linearGradient id="btn" x1="0" y1="0" x2="1" y2="0"><stop offset="0%" stop-color="#4f6ef7"/><stop offset="100%" stop-color="#3a4de4"/></linearGradient>
  </defs>

  <rect width="1080" height="1080" fill="#ffffff"/>
  <rect x="0" y="0" width="1080" height="8" fill="url(#btn)"/>

  <!-- Big 3 as faint watermark FIRST (behind everything) -->
  <text x="560" y="700" font-family="Arial" font-size="680" font-weight="900" fill="#4f6ef7" fill-opacity="0.06" text-anchor="middle">3</text>

  <!-- Logo -->
  <svg x="40" y="30" width="72" height="72" viewBox="0 0 1024 1024">
    <g transform="translate(192,182) scale(20)">
      <path d="M16 2.5L27 7.1V15.3C27 22.9 22 28.1 16 30.2C10 28.1 5 22.9 5 15.3V7.1L16 2.5Z" fill="url(#sg)"/>
      <path d="M9.2 10.6C11.2 9.3 13.5 8.6 16 8.6C18.5 8.6 20.8 9.3 22.8 10.6" fill="none" stroke="#fff" stroke-width="1.7" stroke-linecap="round"/>
      <circle cx="16" cy="15.6" r="2.9" fill="none" stroke="#fff" stroke-width="2.2"/>
      <rect x="14.7" y="18.5" width="2.6" height="6.8" fill="#fff"/>
      <rect x="17.3" y="21.5" width="2.2" height="1.5" fill="#fff"/>
      <rect x="17.3" y="23.9" width="2.8" height="1.5" fill="#fff"/>
    </g>
  </svg>
  <text x="122" y="72" font-family="Arial" font-size="36" font-weight="800" fill="#1a2575">AfterFile</text>

  <!-- Badge -->
  <rect x="390" y="148" width="300" height="50" rx="25" fill="#f0f4ff" stroke="#dde3f8" stroke-width="1.5"/>
  <text x="540" y="180" font-family="Arial" font-size="20" font-weight="700" fill="#4f6ef7" text-anchor="middle" letter-spacing="1">GRATIS PROBEREN</text>

  <!-- Main headline -->
  <text x="540" y="360" font-family="Arial" font-size="100" font-weight="900" fill="#1a2575" text-anchor="middle">3 maanden</text>
  <text x="540" y="470" font-family="Arial" font-size="100" font-weight="900" fill="#4f6ef7" text-anchor="middle">gratis.</text>

  <line x1="160" y1="530" x2="920" y2="530" stroke="#dde3f8" stroke-width="1.5"/>

  <!-- Sub copy -->
  <text x="540" y="608" font-family="Arial" font-size="26" fill="#374151" text-anchor="middle">Geen betaalgegevens nodig.</text>
  <text x="540" y="654" font-family="Arial" font-size="26" fill="#374151" text-anchor="middle">Geen verborgen kosten.</text>
  <text x="540" y="700" font-family="Arial" font-size="26" fill="#374151" text-anchor="middle">Gewoon de tijd om alles rustig te regelen.</text>

  <!-- Checkmarks -->
  <circle cx="270" cy="790" r="30" fill="#f0f4ff"/>
  <text x="270" y="800" font-family="Arial" font-size="24" fill="#4f6ef7" text-anchor="middle">✓</text>
  <text x="312" y="800" font-family="Arial" font-size="21" fill="#6b7280">Bezittingen</text>

  <circle cx="540" cy="790" r="30" fill="#f0f4ff"/>
  <text x="540" y="800" font-family="Arial" font-size="24" fill="#4f6ef7" text-anchor="middle">✓</text>
  <text x="582" y="800" font-family="Arial" font-size="21" fill="#6b7280">Contacten</text>

  <circle cx="790" cy="790" r="30" fill="#f0f4ff"/>
  <text x="790" y="800" font-family="Arial" font-size="24" fill="#4f6ef7" text-anchor="middle">✓</text>
  <text x="832" y="800" font-family="Arial" font-size="21" fill="#6b7280">Instructies</text>

  <!-- CTA -->
  <rect x="190" y="890" width="700" height="80" rx="14" fill="url(#btn)"/>
  <text x="540" y="940" font-family="Arial" font-size="28" font-weight="800" fill="white" text-anchor="middle">Start gratis op afterfile.nl →</text>
</svg>
